<svg width="35" height="35" viewBox="0 0 35 35" fill="none" xmlns="http://www.w3.org/2000/svg">
<g clip-path="url(#clip0_1_106)">
<path d="M33.9826 27.064C34.5704 27.6518 34.8643 28.364 34.8643 29.2006C34.8643 30.0371 34.5704 30.772 33.9826 31.405L32.5581 32.8295C31.7894 33.553 30.7494 34.073 29.438 34.3895C28.1266 34.7061 26.8492 34.8417 25.6056 34.7965C24.3621 34.7513 23.1299 34.6156 21.9089 34.3895C16.5278 33.3495 11.9154 30.9076 8.07171 27.064C4.22804 23.2203 1.74096 18.5853 0.610472 13.1589C0.113056 10.7623 6.57141e-06 8.60304 0.271324 6.6812C0.542642 4.75937 1.1305 3.32364 2.03489 2.37403L3.45931 0.949612C4.09238 0.361759 4.8272 0.0678291 5.66377 0.0678291C6.50033 0.0678291 7.21254 0.361759 7.80039 0.949612L13.5659 6.71512C14.1538 7.30297 14.4477 8.02649 14.4477 8.88566C14.4477 9.74483 14.1538 10.4683 13.5659 11.0562L12.1415 12.4806C11.5536 13.0685 11.2597 13.7807 11.2597 14.6173C11.2597 15.4538 11.5536 16.1886 12.1415 16.8217L18.1105 22.7229C18.7435 23.3107 19.4784 23.6047 20.3149 23.6047C21.1515 23.6047 21.8637 23.3107 22.4516 22.7229L23.876 21.2985C24.5091 20.7106 25.2439 20.4167 26.0804 20.4167C26.917 20.4167 27.6292 20.7106 28.2171 21.2985L33.9826 27.064ZM4.95156 2.37403L4.20543 3.12016L11.3954 10.3101L12.1415 9.63178C12.5937 9.13437 12.5937 8.63695 12.1415 8.13954L6.37598 2.37403C5.87856 1.92184 5.40375 1.92184 4.95156 2.37403ZM22.3159 32.3547C25.7526 33.0329 28.3979 32.8973 30.2519 31.9477L23.1299 24.8256C22.135 25.5039 21.0271 25.7865 19.8062 25.6735C18.5853 25.5604 17.5452 25.0517 16.6861 24.1473L10.7171 18.2461C9.81267 17.387 9.30395 16.3469 9.1909 15.126C9.07785 13.905 9.36047 12.7972 10.0388 11.8023L2.91667 4.68023C2.01228 6.57946 1.89923 9.27003 2.57753 12.7519C3.61758 17.7713 5.92378 22.0672 9.49613 25.6395C13.0685 29.1667 17.3417 31.405 22.3159 32.3547ZM32.5581 29.9128C33.0103 29.4606 33.0103 28.9858 32.5581 28.4884L26.7926 22.7229C26.2952 22.2707 25.8204 22.2707 25.3682 22.7229L24.6221 23.469L31.812 30.6589L32.5581 29.9128ZM19.6027 0.0678291C23.8081 0.0678291 27.4031 1.56008 30.3876 4.54457C33.3721 7.52907 34.8643 11.124 34.8643 15.3295C34.8643 15.6008 34.7626 15.8382 34.5591 16.0417C34.3556 16.2452 34.1182 16.3469 33.8469 16.3469C33.5756 16.3469 33.3382 16.2452 33.1347 16.0417C32.9312 15.8382 32.8295 15.6008 32.8295 15.3295C32.8295 11.6667 31.5407 8.54651 28.9632 5.96899C26.3857 3.39147 23.2655 2.10271 19.6027 2.10271C19.3314 2.10271 19.094 2.00097 18.8905 1.79748C18.687 1.59399 18.5853 1.35659 18.5853 1.08527C18.5853 0.813953 18.687 0.576553 18.8905 0.373062C19.094 0.169575 19.3314 0.0678291 19.6027 0.0678291ZM19.6027 4.1376C22.6777 4.1376 25.3117 5.23417 27.5049 7.42733C29.698 9.62048 30.7946 12.2545 30.7946 15.3295C30.7946 15.6008 30.6928 15.8382 30.4893 16.0417C30.2859 16.2452 30.0485 16.3469 29.7771 16.3469C29.5058 16.3469 29.2684 16.2452 29.0649 16.0417C28.8614 15.8382 28.7597 15.6008 28.7597 15.3295C28.7597 12.7972 27.8666 10.6379 26.0804 8.85175C24.2943 7.06557 22.135 6.17248 19.6027 6.17248C19.3314 6.17248 19.094 6.07074 18.8905 5.86725C18.687 5.66376 18.5853 5.42636 18.5853 5.15504C18.5853 4.88372 18.687 4.64632 18.8905 4.44283C19.094 4.23934 19.3314 4.1376 19.6027 4.1376ZM19.6027 8.20737C21.5472 8.20737 23.2203 8.90827 24.6221 10.3101C26.0239 11.7119 26.7248 13.385 26.7248 15.3295C26.7248 15.6008 26.6231 15.8382 26.4196 16.0417C26.2161 16.2452 25.9787 16.3469 25.7074 16.3469C25.4361 16.3469 25.1987 16.2452 24.9952 16.0417C24.7917 15.8382 24.6899 15.6008 24.6899 15.3295C24.6899 13.9277 24.1925 12.7293 23.1977 11.7345C22.2029 10.7397 21.0045 10.2423 19.6027 10.2423C19.3314 10.2423 19.094 10.1405 18.8905 9.93702C18.687 9.73353 18.5853 9.49613 18.5853 9.22481C18.5853 8.95349 18.687 8.71609 18.8905 8.5126C19.094 8.30911 19.3314 8.20737 19.6027 8.20737ZM19.6027 12.2771C20.4619 12.2771 21.1854 12.5711 21.7733 13.1589C22.3611 13.7468 22.655 14.4703 22.655 15.3295C22.655 15.6008 22.5533 15.8382 22.3498 16.0417C22.1463 16.2452 21.9089 16.3469 21.6376 16.3469C21.3663 16.3469 21.1289 16.2452 20.9254 16.0417C20.7219 15.8382 20.6202 15.6008 20.6202 15.3295C20.6202 15.0581 20.5184 14.8207 20.3149 14.6173C20.1114 14.4138 19.874 14.312 19.6027 14.312C19.3314 14.312 19.094 14.2103 18.8905 14.0068C18.687 13.8033 18.5853 13.5659 18.5853 13.2946C18.5853 13.0233 18.687 12.7859 18.8905 12.5824C19.094 12.3789 19.3314 12.2771 19.6027 12.2771Z" fill="#FF3115"/>
</g>
<defs>
<clipPath id="clip0_1_106">
<rect width="35" height="35" fill="white" transform="matrix(1 0 0 -1 0 35)"/>
</clipPath>
</defs>
</svg>
